<svg width="428" height="33" viewBox="0 0 428 33" fill="none" xmlns="http://www.w3.org/2000/svg">
<path fill-rule="evenodd" clip-rule="evenodd" d="M8.94071 0.683139H14.1466C18.8524 0.683139 21.861 3.73948 21.861 8.49222C21.861 13.7581 18.5385 16.3209 13.2448 16.3209H8.94071V0.683139ZM13.83 4.26938C13.6412 4.26938 13.3991 4.29742 13.0745 4.29742V12.7402C15.7347 12.7402 17.7723 11.6186 17.7723 8.41366C17.7723 5.65174 16.0991 4.28621 13.83 4.28621V4.26938Z" fill="#003256"/>
<path fill-rule="evenodd" clip-rule="evenodd" d="M38 5.24238V1.11493C36.9528 0.632474 35.8203 0.389726 34.6775 0.402717C30.3308 0.402717 26.8461 3.87685 26.8461 8.45855C26.8461 13.0403 30.275 16.4022 34.5977 16.4022C36.1352 16.4022 37.1887 16.0601 38 15.404V11.2765C36.7843 12.0729 35.9464 12.415 34.8078 12.415C32.6212 12.415 30.9187 10.7326 30.9187 8.25947C30.8883 7.15504 31.2857 6.08513 32.0193 5.29596C32.7529 4.50678 33.7597 4.06632 34.8078 4.07593C35.9969 4.07593 36.8615 4.50213 38 5.24238Z" fill="#003256"/>
<path fill-rule="evenodd" clip-rule="evenodd" d="M0 0.691525V16.3209H4.07798L4.10459 10.3428H8.0735V6.72849H4.13119L4.10459 4.30866H8.37144V0.691525H0Z" fill="#003256"/>
<path fill-rule="evenodd" clip-rule="evenodd" d="M22.2813 16.3209H26.3593V0.691525H22.2813V16.3209Z" fill="#003256"/>
<path d="M46.455 13.4022L48.158 4.87422H52.864L52.695 5.71922H48.99L48.405 8.68322H51.538L51.369 9.54122H48.249L47.469 13.4022H46.455ZM52.5995 13.4022L54.3025 4.87422H55.8885C57.0759 4.87422 57.9729 5.16889 58.5795 5.75822C59.1949 6.33889 59.5025 7.15355 59.5025 8.20222C59.5025 9.23355 59.3162 10.1392 58.9435 10.9192C58.5795 11.6992 58.0509 12.3102 57.3575 12.7522C56.6729 13.1856 55.8495 13.4022 54.8875 13.4022H52.5995ZM53.7695 12.5702H54.8875C55.6242 12.5702 56.2612 12.3882 56.7985 12.0242C57.3359 11.6602 57.7475 11.1532 58.0335 10.5032C58.3282 9.85322 58.4755 9.10789 58.4755 8.26722C58.4755 7.46122 58.2502 6.83289 57.7995 6.38222C57.3575 5.92289 56.7075 5.69322 55.8495 5.69322H55.1475L53.7695 12.5702ZM60.2929 13.4022L61.9959 4.87422H63.0099L61.3069 13.4022H60.2929ZM66.8833 13.5582C66.2333 13.5582 65.6829 13.4152 65.2323 13.1292C64.7816 12.8346 64.4393 12.4272 64.2053 11.9072C63.9713 11.3872 63.8543 10.7892 63.8543 10.1132C63.8543 9.44589 63.9583 8.79155 64.1663 8.15022C64.3743 7.50889 64.6733 6.93255 65.0633 6.42122C65.4533 5.90122 65.9169 5.48955 66.4543 5.18622C67.0003 4.87422 67.6026 4.71822 68.2613 4.71822C68.7466 4.71822 69.1626 4.83955 69.5093 5.08222C69.8646 5.31622 70.1463 5.61522 70.3543 5.97922L69.6523 6.51222C69.4876 6.23489 69.2883 6.01389 69.0543 5.84922C68.8203 5.67589 68.5386 5.58922 68.2093 5.58922C67.7066 5.58922 67.2473 5.72355 66.8313 5.99222C66.4239 6.25222 66.0773 6.59889 65.7913 7.03222C65.5053 7.46555 65.2843 7.94222 65.1283 8.46222C64.9723 8.98222 64.8943 9.50222 64.8943 10.0222C64.8943 10.5336 64.9679 10.9929 65.1153 11.4002C65.2626 11.7989 65.4966 12.1152 65.8173 12.3492C66.1379 12.5746 66.5539 12.6872 67.0653 12.6872C67.4119 12.6872 67.7283 12.6179 68.0143 12.4792C68.3089 12.3406 68.5949 12.1542 68.8723 11.9202L69.3273 12.5702C69.0153 12.8389 68.6556 13.0729 68.2483 13.2722C67.8496 13.4629 67.3946 13.5582 66.8833 13.5582ZM70.081 10.5162L70.237 9.74922H73.084L72.915 10.5162H70.081ZM73.9657 13.4022L75.6687 4.87422H76.6827L74.9797 13.4022H73.9657ZM77.1891 13.4022L78.4501 7.08422H79.2691L79.1781 8.03322H79.2301C79.5855 7.72122 79.9408 7.46122 80.2961 7.25322C80.6515 7.03655 81.0285 6.92822 81.4271 6.92822C81.9645 6.92822 82.3458 7.07122 82.5711 7.35722C82.8051 7.63455 82.9221 8.01589 82.9221 8.50122C82.9221 8.76989 82.8875 9.06022 82.8181 9.37222L82.0121 13.4022H81.0241L81.8041 9.50222C81.8388 9.32889 81.8648 9.19022 81.8821 9.08622C81.8995 8.98222 81.9081 8.87389 81.9081 8.76122C81.9081 8.11122 81.5961 7.78622 80.9721 7.78622C80.7295 7.78622 80.4521 7.87722 80.1401 8.05922C79.8281 8.24122 79.4728 8.53155 79.0741 8.93022L78.1771 13.4022H77.1891ZM85.7352 13.5582C85.3105 13.5582 84.8945 13.4456 84.4872 13.2202C84.0885 12.9949 83.7809 12.7089 83.5642 12.3622L84.1882 11.8682C84.3875 12.1369 84.6259 12.3579 84.9032 12.5312C85.1805 12.7046 85.4839 12.7912 85.8132 12.7912C86.1772 12.7912 86.4892 12.6916 86.7492 12.4922C87.0179 12.2929 87.1522 12.0416 87.1522 11.7382C87.1522 11.5129 87.0612 11.3179 86.8792 11.1532C86.7059 10.9799 86.3765 10.7589 85.8912 10.4902C85.4925 10.2649 85.1675 10.0179 84.9162 9.74922C84.6735 9.48055 84.5522 9.16855 84.5522 8.81322C84.5522 8.44055 84.6475 8.11555 84.8382 7.83822C85.0289 7.55222 85.2802 7.33122 85.5922 7.17522C85.9129 7.01055 86.2639 6.92822 86.6452 6.92822C87.0439 6.92822 87.4035 7.00622 87.7242 7.16222C88.0449 7.31822 88.3265 7.52622 88.5692 7.78622L87.9712 8.30622C87.8065 8.13289 87.6115 7.98989 87.3862 7.87722C87.1695 7.76455 86.9182 7.70822 86.6322 7.70822C86.3029 7.70822 86.0299 7.80789 85.8132 8.00722C85.6052 8.19789 85.5012 8.42755 85.5012 8.69622C85.5012 8.95622 85.6182 9.16855 85.8522 9.33322C86.0862 9.49789 86.3419 9.65822 86.6192 9.81422C87.1565 10.1089 87.5379 10.3862 87.7632 10.6462C87.9885 10.9062 88.1012 11.2269 88.1012 11.6082C88.1012 11.9982 87.9972 12.3406 87.7892 12.6352C87.5812 12.9299 87.2995 13.1596 86.9442 13.3242C86.5889 13.4802 86.1859 13.5582 85.7352 13.5582ZM91.0697 13.5582C90.541 13.5582 90.1597 13.4152 89.9257 13.1292C89.6917 12.8432 89.5747 12.4619 89.5747 11.9852C89.5747 11.8379 89.5833 11.6992 89.6007 11.5692C89.618 11.4306 89.644 11.2789 89.6787 11.1142L90.4847 7.08422H91.4857L90.6927 10.9842C90.658 11.1489 90.632 11.2876 90.6147 11.4002C90.5973 11.5042 90.5887 11.6126 90.5887 11.7252C90.5887 12.3752 90.9007 12.7002 91.5247 12.7002C91.776 12.7002 92.0533 12.6092 92.3567 12.4272C92.6687 12.2452 93.0153 11.9549 93.3967 11.5562L94.2937 7.08422H95.2817L94.0207 13.4022H93.2017L93.3057 12.4402H93.2537C92.907 12.7436 92.5517 13.0079 92.1877 13.2332C91.8237 13.4499 91.451 13.5582 91.0697 13.5582ZM96.1178 13.4022L97.3788 7.08422H98.1978L98.0548 8.29322H98.1068C98.3582 7.91189 98.6485 7.59122 98.9778 7.33122C99.3072 7.06255 99.6668 6.92822 100.057 6.92822C100.274 6.92822 100.473 6.96722 100.655 7.04522L100.304 7.92922C100.165 7.85989 99.9832 7.82522 99.7578 7.82522C99.4458 7.82522 99.1252 7.96389 98.7958 8.24122C98.4665 8.50989 98.1675 8.89989 97.8988 9.41122L97.1058 13.4022H96.1178ZM102.995 13.5582C102.25 13.5582 101.648 13.3286 101.188 12.8692C100.738 12.4099 100.512 11.7599 100.512 10.9192C100.512 10.3212 100.608 9.77955 100.798 9.29422C100.998 8.80889 101.258 8.38855 101.578 8.03322C101.908 7.67789 102.272 7.40489 102.67 7.21422C103.069 7.02355 103.476 6.92822 103.892 6.92822C104.369 6.92822 104.746 7.02789 105.023 7.22722C105.309 7.42655 105.517 7.69955 105.647 8.04622C105.777 8.39289 105.842 8.78289 105.842 9.21622C105.842 9.45889 105.816 9.69289 105.764 9.91822C105.712 10.1349 105.665 10.3039 105.621 10.4252H101.513C101.435 10.9712 101.466 11.4176 101.604 11.7642C101.743 12.1109 101.955 12.3666 102.241 12.5312C102.536 12.6872 102.865 12.7652 103.229 12.7652C103.481 12.7652 103.728 12.7132 103.97 12.6092C104.222 12.4966 104.447 12.3666 104.646 12.2192L105.036 12.8822C104.785 13.0642 104.482 13.2246 104.126 13.3632C103.78 13.4932 103.403 13.5582 102.995 13.5582ZM101.617 9.74922H104.932C104.95 9.65389 104.963 9.55422 104.971 9.45022C104.989 9.34622 104.997 9.23789 104.997 9.12522C104.997 8.88255 104.958 8.65722 104.88 8.44922C104.802 8.23255 104.672 8.05922 104.49 7.92922C104.317 7.79055 104.079 7.72122 103.775 7.72122C103.316 7.72122 102.883 7.90755 102.475 8.28022C102.068 8.64422 101.782 9.13389 101.617 9.74922ZM108.617 13.5582C108.062 13.5582 107.62 13.3632 107.291 12.9732C106.962 12.5746 106.797 12.0069 106.797 11.2702C106.797 10.6636 106.892 10.1002 107.083 9.58022C107.274 9.05155 107.529 8.58789 107.85 8.18922C108.171 7.79055 108.535 7.48289 108.942 7.26622C109.349 7.04089 109.774 6.92822 110.216 6.92822C110.554 6.92822 110.849 7.01489 111.1 7.18822C111.351 7.35289 111.555 7.57389 111.711 7.85122H111.75L111.958 6.61622L112.452 4.14622H113.453L111.581 13.4022H110.762L110.866 12.4662H110.814C110.511 12.7869 110.168 13.0512 109.787 13.2592C109.406 13.4586 109.016 13.5582 108.617 13.5582ZM108.981 12.7262C109.31 12.7262 109.644 12.6266 109.982 12.4272C110.32 12.2279 110.649 11.9246 110.97 11.5172L111.542 8.69622C111.36 8.36689 111.161 8.12855 110.944 7.98122C110.727 7.83389 110.498 7.76022 110.255 7.76022C109.943 7.76022 109.64 7.85122 109.345 8.03322C109.059 8.21522 108.799 8.46655 108.565 8.78722C108.34 9.09922 108.158 9.45889 108.019 9.86622C107.889 10.2649 107.824 10.6809 107.824 11.1142C107.824 11.6602 107.928 12.0676 108.136 12.3362C108.353 12.5962 108.634 12.7262 108.981 12.7262ZM116.305 10.4772L116.448 9.77522H121.401L121.245 10.4772H116.305ZM124.925 13.4022L126.628 4.87422H128.903C129.726 4.87422 130.372 5.03455 130.84 5.35522C131.308 5.67589 131.542 6.14389 131.542 6.75922C131.542 7.14055 131.446 7.47855 131.256 7.77322C131.074 8.06789 130.835 8.31055 130.541 8.50122C130.255 8.69189 129.956 8.82189 129.644 8.89122L129.631 8.94322C130.073 9.04722 130.445 9.24222 130.749 9.52822C131.052 9.80555 131.204 10.1869 131.204 10.6722C131.204 11.3049 131.048 11.8249 130.736 12.2322C130.432 12.6309 130.012 12.9256 129.475 13.1162C128.937 13.3069 128.331 13.4022 127.655 13.4022H124.925ZM126.901 8.54022H128.123C128.937 8.54022 129.54 8.38855 129.93 8.08522C130.32 7.77322 130.515 7.37889 130.515 6.90222C130.515 6.51222 130.363 6.20889 130.06 5.99222C129.765 5.77555 129.297 5.66722 128.656 5.66722H127.473L126.901 8.54022ZM126.082 12.6092H127.564C128.378 12.6092 129.024 12.4619 129.501 12.1672C129.977 11.8639 130.216 11.3829 130.216 10.7242C130.216 10.2909 130.047 9.94422 129.709 9.68422C129.379 9.41555 128.898 9.28122 128.266 9.28122H126.758L126.082 12.6092ZM134.376 13.5582C133.821 13.5582 133.379 13.3632 133.05 12.9732C132.72 12.5746 132.556 12.0069 132.556 11.2702C132.556 10.6636 132.651 10.1002 132.842 9.58022C133.032 9.05155 133.288 8.58789 133.609 8.18922C133.929 7.79055 134.293 7.48289 134.701 7.26622C135.108 7.04089 135.533 6.92822 135.975 6.92822C136.313 6.92822 136.612 7.01489 136.872 7.18822C137.14 7.36155 137.348 7.59122 137.496 7.87722H137.548L137.795 7.08422H138.601L137.34 13.4022H136.521L136.625 12.4662H136.573C136.269 12.7869 135.927 13.0512 135.546 13.2592C135.164 13.4586 134.774 13.5582 134.376 13.5582ZM134.74 12.7262C135.069 12.7262 135.403 12.6266 135.741 12.4272C136.087 12.2279 136.417 11.9246 136.729 11.5172L137.301 8.69622C137.119 8.36689 136.919 8.12855 136.703 7.98122C136.486 7.83389 136.256 7.76022 136.014 7.76022C135.702 7.76022 135.398 7.85122 135.104 8.03322C134.818 8.21522 134.558 8.46655 134.324 8.78722C134.098 9.09922 133.916 9.45889 133.778 9.86622C133.648 10.2649 133.583 10.6809 133.583 11.1142C133.583 11.6602 133.687 12.0676 133.895 12.3362C134.111 12.5962 134.393 12.7262 134.74 12.7262ZM141.839 13.5582C141.155 13.5582 140.596 13.3372 140.162 12.8952C139.729 12.4532 139.512 11.8292 139.512 11.0232C139.512 10.4339 139.608 9.89222 139.798 9.39822C139.989 8.89555 140.249 8.46222 140.578 8.09822C140.916 7.72555 141.293 7.43955 141.709 7.24022C142.134 7.03222 142.576 6.92822 143.035 6.92822C143.417 6.92822 143.737 7.00189 143.997 7.14922C144.257 7.29655 144.483 7.47855 144.673 7.69522L144.088 8.31922C143.924 8.11989 143.759 7.97689 143.594 7.89022C143.43 7.79489 143.222 7.74722 142.97 7.74722C142.554 7.74722 142.16 7.89455 141.787 8.18922C141.415 8.48389 141.111 8.87389 140.877 9.35922C140.643 9.84455 140.526 10.3776 140.526 10.9582C140.526 11.5302 140.648 11.9679 140.89 12.2712C141.142 12.5746 141.519 12.7262 142.021 12.7262C142.299 12.7262 142.554 12.6699 142.788 12.5572C143.022 12.4446 143.235 12.3146 143.425 12.1672L143.867 12.8172C143.642 12.9906 143.36 13.1596 143.022 13.3242C142.693 13.4802 142.299 13.5582 141.839 13.5582ZM145.084 13.4022L146.93 4.14622H147.931L146.683 10.4252H146.709L149.946 7.08422H151.09L148.568 9.72322L150.089 13.4022H149.075L147.866 10.3212L146.41 11.8032L146.072 13.4022H145.084ZM153.611 13.5582C152.866 13.5582 152.264 13.3286 151.804 12.8692C151.354 12.4099 151.128 11.7599 151.128 10.9192C151.128 10.3212 151.224 9.77955 151.414 9.29422C151.614 8.80889 151.874 8.38855 152.194 8.03322C152.524 7.67789 152.888 7.40489 153.286 7.21422C153.685 7.02355 154.092 6.92822 154.508 6.92822C154.985 6.92822 155.362 7.02789 155.639 7.22722C155.925 7.42655 156.133 7.69955 156.263 8.04622C156.393 8.39289 156.458 8.78289 156.458 9.21622C156.458 9.45889 156.432 9.69289 156.38 9.91822C156.328 10.1349 156.281 10.3039 156.237 10.4252H152.129C152.051 10.9712 152.082 11.4176 152.22 11.7642C152.359 12.1109 152.571 12.3666 152.857 12.5312C153.152 12.6872 153.481 12.7652 153.845 12.7652C154.097 12.7652 154.344 12.7132 154.586 12.6092C154.838 12.4966 155.063 12.3666 155.262 12.2192L155.652 12.8822C155.401 13.0642 155.098 13.2246 154.742 13.3632C154.396 13.4932 154.019 13.5582 153.611 13.5582ZM152.233 9.74922H155.548C155.566 9.65389 155.579 9.55422 155.587 9.45022C155.605 9.34622 155.613 9.23789 155.613 9.12522C155.613 8.88255 155.574 8.65722 155.496 8.44922C155.418 8.23255 155.288 8.05922 155.106 7.92922C154.933 7.79055 154.695 7.72122 154.391 7.72122C153.932 7.72122 153.499 7.90755 153.091 8.28022C152.684 8.64422 152.398 9.13389 152.233 9.74922ZM159.233 13.5582C158.679 13.5582 158.237 13.3632 157.907 12.9732C157.578 12.5746 157.413 12.0069 157.413 11.2702C157.413 10.6636 157.509 10.1002 157.699 9.58022C157.89 9.05155 158.146 8.58789 158.466 8.18922C158.787 7.79055 159.151 7.48289 159.558 7.26622C159.966 7.04089 160.39 6.92822 160.832 6.92822C161.17 6.92822 161.465 7.01489 161.716 7.18822C161.968 7.35289 162.171 7.57389 162.327 7.85122H162.366L162.574 6.61622L163.068 4.14622H164.069L162.197 13.4022H161.378L161.482 12.4662H161.43C161.127 12.7869 160.785 13.0512 160.403 13.2592C160.022 13.4586 159.632 13.5582 159.233 13.5582ZM159.597 12.7262C159.927 12.7262 160.26 12.6266 160.598 12.4272C160.936 12.2279 161.266 11.9246 161.586 11.5172L162.158 8.69622C161.976 8.36689 161.777 8.12855 161.56 7.98122C161.344 7.83389 161.114 7.76022 160.871 7.76022C160.559 7.76022 160.256 7.85122 159.961 8.03322C159.675 8.21522 159.415 8.46655 159.181 8.78722C158.956 9.09922 158.774 9.45889 158.635 9.86622C158.505 10.2649 158.44 10.6809 158.44 11.1142C158.44 11.6602 158.544 12.0676 158.752 12.3362C158.969 12.5962 159.251 12.7262 159.597 12.7262ZM169.508 13.5582C169.17 13.5582 168.866 13.4716 168.598 13.2982C168.338 13.1249 168.134 12.8952 167.987 12.6092H167.948L167.688 13.4022H166.869L168.715 4.14622H169.716L169.209 6.61622L168.923 7.86422H168.949C169.261 7.61289 169.599 7.39622 169.963 7.21422C170.327 7.02355 170.704 6.92822 171.094 6.92822C171.648 6.92822 172.09 7.12322 172.42 7.51322C172.749 7.90322 172.914 8.47089 172.914 9.21622C172.914 9.82289 172.818 10.3906 172.628 10.9192C172.437 11.4392 172.181 11.8986 171.861 12.2972C171.54 12.6959 171.176 13.0079 170.769 13.2332C170.361 13.4499 169.941 13.5582 169.508 13.5582ZM169.469 12.7262C169.781 12.7262 170.08 12.6352 170.366 12.4532C170.66 12.2712 170.92 12.0242 171.146 11.7122C171.38 11.3916 171.562 11.0319 171.692 10.6332C171.822 10.2259 171.887 9.80122 171.887 9.35922C171.887 8.82189 171.783 8.42322 171.575 8.16322C171.367 7.89455 171.085 7.76022 170.73 7.76022C170.435 7.76022 170.11 7.85122 169.755 8.03322C169.408 8.21522 169.083 8.46655 168.78 8.78722L168.182 11.7902C168.355 12.1196 168.55 12.3579 168.767 12.5052C168.992 12.6526 169.226 12.7262 169.469 12.7262ZM173.218 16.1192C173.131 16.1192 173.019 16.1019 172.88 16.0672C172.741 16.0412 172.611 15.9979 172.49 15.9372L172.815 15.1962C172.971 15.2742 173.127 15.3132 173.283 15.3132C173.604 15.3132 173.903 15.1789 174.18 14.9102C174.466 14.6502 174.717 14.3036 174.934 13.8702L175.168 13.4152L174.089 7.08422H175.077L175.571 10.6332C175.614 10.9192 175.653 11.2312 175.688 11.5692C175.723 11.8986 175.753 12.2149 175.779 12.5182H175.831C175.978 12.2149 176.13 11.8986 176.286 11.5692C176.451 11.2399 176.611 10.9279 176.767 10.6332L178.587 7.08422H179.575L175.857 13.9352C175.64 14.3426 175.402 14.7109 175.142 15.0402C174.891 15.3782 174.609 15.6426 174.297 15.8332C173.985 16.0239 173.625 16.1192 173.218 16.1192ZM184.131 13.5582C183.576 13.5582 183.186 13.4239 182.961 13.1552C182.735 12.8779 182.623 12.5442 182.623 12.1542C182.623 12.0242 182.631 11.9029 182.649 11.7902C182.666 11.6776 182.679 11.5649 182.688 11.4522L183.429 7.89022H182.506L182.649 7.14922L183.637 7.08422L184.105 5.34222H184.95L184.599 7.08422H186.198L186.042 7.89022H184.417L183.676 11.5042C183.65 11.6602 183.637 11.8162 183.637 11.9722C183.637 12.2322 183.697 12.4272 183.819 12.5572C183.94 12.6872 184.148 12.7522 184.443 12.7522C184.564 12.7522 184.681 12.7306 184.794 12.6872C184.906 12.6439 185.01 12.6006 185.106 12.5572L185.327 13.2722C185.188 13.3329 185.015 13.3936 184.807 13.4542C184.607 13.5236 184.382 13.5582 184.131 13.5582ZM186.356 13.4022L188.202 4.14622H189.203L188.579 7.20122L188.371 7.99422H188.423C188.778 7.69089 189.134 7.43955 189.489 7.24022C189.844 7.03222 190.213 6.92822 190.594 6.92822C191.131 6.92822 191.513 7.07122 191.738 7.35722C191.972 7.63455 192.089 8.01589 192.089 8.50122C192.089 8.76989 192.054 9.06022 191.985 9.37222L191.179 13.4022H190.191L190.971 9.50222C191.006 9.32889 191.032 9.19022 191.049 9.08622C191.066 8.98222 191.075 8.87389 191.075 8.76122C191.075 8.11122 190.763 7.78622 190.139 7.78622C189.896 7.78622 189.619 7.87722 189.307 8.05922C188.995 8.24122 188.64 8.53155 188.241 8.93022L187.344 13.4022H186.356ZM195.722 13.5582C194.976 13.5582 194.374 13.3286 193.915 12.8692C193.464 12.4099 193.239 11.7599 193.239 10.9192C193.239 10.3212 193.334 9.77955 193.525 9.29422C193.724 8.80889 193.984 8.38855 194.305 8.03322C194.634 7.67789 194.998 7.40489 195.397 7.21422C195.795 7.02355 196.203 6.92822 196.619 6.92822C197.095 6.92822 197.472 7.02789 197.75 7.22722C198.036 7.42655 198.244 7.69955 198.374 8.04622C198.504 8.39289 198.569 8.78289 198.569 9.21622C198.569 9.45889 198.543 9.69289 198.491 9.91822C198.439 10.1349 198.391 10.3039 198.348 10.4252H194.24C194.162 10.9712 194.192 11.4176 194.331 11.7642C194.469 12.1109 194.682 12.3666 194.968 12.5312C195.262 12.6872 195.592 12.7652 195.956 12.7652C196.207 12.7652 196.454 12.7132 196.697 12.6092C196.948 12.4966 197.173 12.3666 197.373 12.2192L197.763 12.8822C197.511 13.0642 197.208 13.2246 196.853 13.3632C196.506 13.4932 196.129 13.5582 195.722 13.5582ZM194.344 9.74922H197.659C197.676 9.65389 197.689 9.55422 197.698 9.45022C197.715 9.34622 197.724 9.23789 197.724 9.12522C197.724 8.88255 197.685 8.65722 197.607 8.44922C197.529 8.23255 197.399 8.05922 197.217 7.92922C197.043 7.79055 196.805 7.72122 196.502 7.72122C196.042 7.72122 195.609 7.90755 195.202 8.28022C194.794 8.64422 194.508 9.13389 194.344 9.74922ZM202.178 13.4022L203.283 7.89022H202.464L202.607 7.14922L203.452 7.08422L203.66 6.03122C203.79 5.38989 204.024 4.89155 204.362 4.53622C204.7 4.17222 205.133 3.99022 205.662 3.99022C205.887 3.99022 206.091 4.02055 206.273 4.08122C206.455 4.13322 206.624 4.20689 206.78 4.30222L206.429 5.01722C206.342 4.95655 206.238 4.90455 206.117 4.86122C206.004 4.81789 205.874 4.79622 205.727 4.79622C205.441 4.79622 205.207 4.90455 205.025 5.12122C204.852 5.33789 204.73 5.63255 204.661 6.00522L204.44 7.08422H205.714L205.558 7.89022H204.271L203.166 13.4022H202.178ZM207.511 13.5582C206.982 13.5582 206.601 13.4152 206.367 13.1292C206.133 12.8432 206.016 12.4619 206.016 11.9852C206.016 11.8379 206.025 11.6992 206.042 11.5692C206.059 11.4306 206.085 11.2789 206.12 11.1142L206.926 7.08422H207.927L207.134 10.9842C207.099 11.1489 207.073 11.2876 207.056 11.4002C207.039 11.5042 207.03 11.6126 207.03 11.7252C207.03 12.3752 207.342 12.7002 207.966 12.7002C208.217 12.7002 208.495 12.6092 208.798 12.4272C209.11 12.2452 209.457 11.9549 209.838 11.5562L210.735 7.08422H211.723L210.462 13.4022H209.643L209.747 12.4402H209.695C209.348 12.7436 208.993 13.0079 208.629 13.2332C208.265 13.4499 207.892 13.5582 207.511 13.5582ZM213.573 13.5582C213.01 13.5582 212.728 13.2852 212.728 12.7392C212.728 12.5919 212.754 12.4099 212.806 12.1932L214.405 4.14622H215.406L213.781 12.2452C213.773 12.3059 213.764 12.3579 213.755 12.4012C213.755 12.4359 213.755 12.4662 213.755 12.4922C213.755 12.6482 213.829 12.7262 213.976 12.7262C214.002 12.7262 214.028 12.7262 214.054 12.7262C214.08 12.7176 214.124 12.7046 214.184 12.6872L214.197 13.4542C214.111 13.4889 214.02 13.5149 213.924 13.5322C213.829 13.5496 213.712 13.5582 213.573 13.5582ZM216.798 13.5582C216.235 13.5582 215.953 13.2852 215.953 12.7392C215.953 12.5919 215.979 12.4099 216.031 12.1932L217.63 4.14622H218.631L217.006 12.2452C216.997 12.3059 216.989 12.3579 216.98 12.4012C216.98 12.4359 216.98 12.4662 216.98 12.4922C216.98 12.6482 217.054 12.7262 217.201 12.7262C217.227 12.7262 217.253 12.7262 217.279 12.7262C217.305 12.7176 217.348 12.7046 217.409 12.6872L217.422 13.4542C217.335 13.4889 217.244 13.5149 217.149 13.5322C217.054 13.5496 216.937 13.5582 216.798 13.5582ZM221.767 13.4022L222.872 7.89022H222.053L222.196 7.14922L223.041 7.08422L223.249 6.03122C223.379 5.38989 223.613 4.89155 223.951 4.53622C224.289 4.17222 224.722 3.99022 225.251 3.99022C225.476 3.99022 225.68 4.02055 225.862 4.08122C226.044 4.13322 226.213 4.20689 226.369 4.30222L226.018 5.01722C225.931 4.95655 225.827 4.90455 225.706 4.86122C225.593 4.81789 225.463 4.79622 225.316 4.79622C225.03 4.79622 224.796 4.90455 224.614 5.12122C224.441 5.33789 224.319 5.63255 224.25 6.00522L224.029 7.08422H225.303L225.147 7.89022H223.86L222.755 13.4022H221.767ZM227.077 13.5582C226.522 13.5582 226.08 13.3632 225.751 12.9732C225.422 12.5746 225.257 12.0069 225.257 11.2702C225.257 10.6636 225.352 10.1002 225.543 9.58022C225.734 9.05155 225.989 8.58789 226.31 8.18922C226.631 7.79055 226.995 7.48289 227.402 7.26622C227.809 7.04089 228.234 6.92822 228.676 6.92822C229.014 6.92822 229.313 7.01489 229.573 7.18822C229.842 7.36155 230.05 7.59122 230.197 7.87722H230.249L230.496 7.08422H231.302L230.041 13.4022H229.222L229.326 12.4662H229.274C228.971 12.7869 228.628 13.0512 228.247 13.2592C227.866 13.4586 227.476 13.5582 227.077 13.5582ZM227.441 12.7262C227.77 12.7262 228.104 12.6266 228.442 12.4272C228.789 12.2279 229.118 11.9246 229.43 11.5172L230.002 8.69622C229.82 8.36689 229.621 8.12855 229.404 7.98122C229.187 7.83389 228.958 7.76022 228.715 7.76022C228.403 7.76022 228.1 7.85122 227.805 8.03322C227.519 8.21522 227.259 8.46655 227.025 8.78722C226.8 9.09922 226.618 9.45889 226.479 9.86622C226.349 10.2649 226.284 10.6809 226.284 11.1142C226.284 11.6602 226.388 12.0676 226.596 12.3362C226.813 12.5962 227.094 12.7262 227.441 12.7262ZM232.135 13.4022L233.396 7.08422H234.397L233.123 13.4022H232.135ZM234.228 5.77122C234.064 5.77122 233.916 5.72355 233.786 5.62822C233.656 5.52422 233.591 5.37689 233.591 5.18622C233.591 4.96955 233.665 4.79189 233.812 4.65322C233.968 4.50589 234.146 4.43222 234.345 4.43222C234.519 4.43222 234.666 4.48422 234.787 4.58822C234.917 4.69222 234.982 4.83955 234.982 5.03022C234.982 5.24689 234.904 5.42455 234.748 5.56322C234.601 5.70189 234.428 5.77122 234.228 5.77122ZM237.222 13.5582C236.668 13.5582 236.278 13.4239 236.052 13.1552C235.827 12.8779 235.714 12.5442 235.714 12.1542C235.714 12.0242 235.723 11.9029 235.74 11.7902C235.758 11.6776 235.771 11.5649 235.779 11.4522L236.52 7.89022H235.597L235.74 7.14922L236.728 7.08422L237.196 5.34222H238.041L237.69 7.08422H239.289L239.133 7.89022H237.508L236.767 11.5042C236.741 11.6602 236.728 11.8162 236.728 11.9722C236.728 12.2322 236.789 12.4272 236.91 12.5572C237.032 12.6872 237.24 12.7522 237.534 12.7522C237.656 12.7522 237.773 12.7306 237.885 12.6872C237.998 12.6439 238.102 12.6006 238.197 12.5572L238.418 13.2722C238.28 13.3329 238.106 13.3936 237.898 13.4542C237.699 13.5236 237.474 13.5582 237.222 13.5582ZM239.448 13.4022L241.294 4.14622H242.295L241.671 7.20122L241.463 7.99422H241.515C241.87 7.69089 242.226 7.43955 242.581 7.24022C242.936 7.03222 243.305 6.92822 243.686 6.92822C244.223 6.92822 244.605 7.07122 244.83 7.35722C245.064 7.63455 245.181 8.01589 245.181 8.50122C245.181 8.76989 245.146 9.06022 245.077 9.37222L244.271 13.4022H243.283L244.063 9.50222C244.098 9.32889 244.124 9.19022 244.141 9.08622C244.158 8.98222 244.167 8.87389 244.167 8.76122C244.167 8.11122 243.855 7.78622 243.231 7.78622C242.988 7.78622 242.711 7.87722 242.399 8.05922C242.087 8.24122 241.732 8.53155 241.333 8.93022L240.436 13.4022H239.448ZM250.779 13.5582C250.224 13.5582 249.782 13.3632 249.453 12.9732C249.124 12.5746 248.959 12.0069 248.959 11.2702C248.959 10.6636 249.054 10.1002 249.245 9.58022C249.436 9.05155 249.691 8.58789 250.012 8.18922C250.333 7.79055 250.697 7.48289 251.104 7.26622C251.511 7.04089 251.936 6.92822 252.378 6.92822C252.716 6.92822 253.015 7.01489 253.275 7.18822C253.544 7.36155 253.752 7.59122 253.899 7.87722H253.951L254.198 7.08422H255.004L253.743 13.4022H252.924L253.028 12.4662H252.976C252.673 12.7869 252.33 13.0512 251.949 13.2592C251.568 13.4586 251.178 13.5582 250.779 13.5582ZM251.143 12.7262C251.472 12.7262 251.806 12.6266 252.144 12.4272C252.491 12.2279 252.82 11.9246 253.132 11.5172L253.704 8.69622C253.522 8.36689 253.323 8.12855 253.106 7.98122C252.889 7.83389 252.66 7.76022 252.417 7.76022C252.105 7.76022 251.802 7.85122 251.507 8.03322C251.221 8.21522 250.961 8.46655 250.727 8.78722C250.502 9.09922 250.32 9.45889 250.181 9.86622C250.051 10.2649 249.986 10.6809 249.986 11.1142C249.986 11.6602 250.09 12.0676 250.298 12.3362C250.515 12.5962 250.796 12.7262 251.143 12.7262ZM255.838 13.4022L257.099 7.08422H257.918L257.827 8.03322H257.879C258.234 7.72122 258.589 7.46122 258.945 7.25322C259.3 7.03655 259.677 6.92822 260.076 6.92822C260.613 6.92822 260.994 7.07122 261.22 7.35722C261.454 7.63455 261.571 8.01589 261.571 8.50122C261.571 8.76989 261.536 9.06022 261.467 9.37222L260.661 13.4022H259.673L260.453 9.50222C260.487 9.32889 260.513 9.19022 260.531 9.08622C260.548 8.98222 260.557 8.87389 260.557 8.76122C260.557 8.11122 260.245 7.78622 259.621 7.78622C259.378 7.78622 259.101 7.87722 258.789 8.05922C258.477 8.24122 258.121 8.53155 257.723 8.93022L256.826 13.4022H255.838ZM264.592 13.5582C264.037 13.5582 263.595 13.3632 263.266 12.9732C262.936 12.5746 262.772 12.0069 262.772 11.2702C262.772 10.6636 262.867 10.1002 263.058 9.58022C263.248 9.05155 263.504 8.58789 263.825 8.18922C264.145 7.79055 264.509 7.48289 264.917 7.26622C265.324 7.04089 265.749 6.92822 266.191 6.92822C266.529 6.92822 266.823 7.01489 267.075 7.18822C267.326 7.35289 267.53 7.57389 267.686 7.85122H267.725L267.933 6.61622L268.427 4.14622H269.428L267.556 13.4022H266.737L266.841 12.4662H266.789C266.485 12.7869 266.143 13.0512 265.762 13.2592C265.38 13.4586 264.99 13.5582 264.592 13.5582ZM264.956 12.7262C265.285 12.7262 265.619 12.6266 265.957 12.4272C266.295 12.2279 266.624 11.9246 266.945 11.5172L267.517 8.69622C267.335 8.36689 267.135 8.12855 266.919 7.98122C266.702 7.83389 266.472 7.76022 266.23 7.76022C265.918 7.76022 265.614 7.85122 265.32 8.03322C265.034 8.21522 264.774 8.46655 264.54 8.78722C264.314 9.09922 264.132 9.45889 263.994 9.86622C263.864 10.2649 263.799 10.6809 263.799 11.1142C263.799 11.6602 263.903 12.0676 264.111 12.3362C264.327 12.5962 264.609 12.7262 264.956 12.7262ZM274.632 13.5582C273.948 13.5582 273.389 13.3372 272.955 12.8952C272.522 12.4532 272.305 11.8292 272.305 11.0232C272.305 10.4339 272.401 9.89222 272.591 9.39822C272.782 8.89555 273.042 8.46222 273.371 8.09822C273.709 7.72555 274.086 7.43955 274.502 7.24022C274.927 7.03222 275.369 6.92822 275.828 6.92822C276.21 6.92822 276.53 7.00189 276.79 7.14922C277.05 7.29655 277.276 7.47855 277.466 7.69522L276.881 8.31922C276.717 8.11989 276.552 7.97689 276.387 7.89022C276.223 7.79489 276.015 7.74722 275.763 7.74722C275.347 7.74722 274.953 7.89455 274.58 8.18922C274.208 8.48389 273.904 8.87389 273.67 9.35922C273.436 9.84455 273.319 10.3776 273.319 10.9582C273.319 11.5302 273.441 11.9679 273.683 12.2712C273.935 12.5746 274.312 12.7262 274.814 12.7262C275.092 12.7262 275.347 12.6699 275.581 12.5572C275.815 12.4446 276.028 12.3146 276.218 12.1672L276.66 12.8172C276.435 12.9906 276.153 13.1596 275.815 13.3242C275.486 13.4802 275.092 13.5582 274.632 13.5582ZM277.877 13.4022L279.138 7.08422H279.957L279.814 8.29322H279.866C280.117 7.91189 280.407 7.59122 280.737 7.33122C281.066 7.06255 281.426 6.92822 281.816 6.92822C282.032 6.92822 282.232 6.96722 282.414 7.04522L282.063 7.92922C281.924 7.85989 281.742 7.82522 281.517 7.82522C281.205 7.82522 280.884 7.96389 280.555 8.24122C280.225 8.50989 279.926 8.89989 279.658 9.41122L278.865 13.4022H277.877ZM284.754 13.5582C284.009 13.5582 283.406 13.3286 282.947 12.8692C282.496 12.4099 282.271 11.7599 282.271 10.9192C282.271 10.3212 282.366 9.77955 282.557 9.29422C282.756 8.80889 283.016 8.38855 283.337 8.03322C283.666 7.67789 284.03 7.40489 284.429 7.21422C284.828 7.02355 285.235 6.92822 285.651 6.92822C286.128 6.92822 286.505 7.02789 286.782 7.22722C287.068 7.42655 287.276 7.69955 287.406 8.04622C287.536 8.39289 287.601 8.78289 287.601 9.21622C287.601 9.45889 287.575 9.69289 287.523 9.91822C287.471 10.1349 287.423 10.3039 287.38 10.4252H283.272C283.194 10.9712 283.224 11.4176 283.363 11.7642C283.502 12.1109 283.714 12.3666 284 12.5312C284.295 12.6872 284.624 12.7652 284.988 12.7652C285.239 12.7652 285.486 12.7132 285.729 12.6092C285.98 12.4966 286.206 12.3666 286.405 12.2192L286.795 12.8822C286.544 13.0642 286.24 13.2246 285.885 13.3632C285.538 13.4932 285.161 13.5582 284.754 13.5582ZM283.376 9.74922H286.691C286.708 9.65389 286.721 9.55422 286.73 9.45022C286.747 9.34622 286.756 9.23789 286.756 9.12522C286.756 8.88255 286.717 8.65722 286.639 8.44922C286.561 8.23255 286.431 8.05922 286.249 7.92922C286.076 7.79055 285.837 7.72122 285.534 7.72122C285.075 7.72122 284.641 7.90755 284.234 8.28022C283.827 8.64422 283.541 9.13389 283.376 9.74922ZM290.376 13.5582C289.821 13.5582 289.379 13.3632 289.05 12.9732C288.72 12.5746 288.556 12.0069 288.556 11.2702C288.556 10.6636 288.651 10.1002 288.842 9.58022C289.032 9.05155 289.288 8.58789 289.609 8.18922C289.929 7.79055 290.293 7.48289 290.701 7.26622C291.108 7.04089 291.533 6.92822 291.975 6.92822C292.313 6.92822 292.607 7.01489 292.859 7.18822C293.11 7.35289 293.314 7.57389 293.47 7.85122H293.509L293.717 6.61622L294.211 4.14622H295.212L293.34 13.4022H292.521L292.625 12.4662H292.573C292.269 12.7869 291.927 13.0512 291.546 13.2592C291.164 13.4586 290.774 13.5582 290.376 13.5582ZM290.74 12.7262C291.069 12.7262 291.403 12.6266 291.741 12.4272C292.079 12.2279 292.408 11.9246 292.729 11.5172L293.301 8.69622C293.119 8.36689 292.919 8.12855 292.703 7.98122C292.486 7.83389 292.256 7.76022 292.014 7.76022C291.702 7.76022 291.398 7.85122 291.104 8.03322C290.818 8.21522 290.558 8.46655 290.324 8.78722C290.098 9.09922 289.916 9.45889 289.778 9.86622C289.648 10.2649 289.583 10.6809 289.583 11.1142C289.583 11.6602 289.687 12.0676 289.895 12.3362C290.111 12.5962 290.393 12.7262 290.74 12.7262ZM295.409 13.4022L296.67 7.08422H297.671L296.397 13.4022H295.409ZM297.502 5.77122C297.337 5.77122 297.19 5.72355 297.06 5.62822C296.93 5.52422 296.865 5.37689 296.865 5.18622C296.865 4.96955 296.939 4.79189 297.086 4.65322C297.242 4.50589 297.42 4.43222 297.619 4.43222C297.792 4.43222 297.94 4.48422 298.061 4.58822C298.191 4.69222 298.256 4.83955 298.256 5.03022C298.256 5.24689 298.178 5.42455 298.022 5.56322C297.875 5.70189 297.701 5.77122 297.502 5.77122ZM300.496 13.5582C299.941 13.5582 299.551 13.4239 299.326 13.1552C299.1 12.8779 298.988 12.5442 298.988 12.1542C298.988 12.0242 298.996 11.9029 299.014 11.7902C299.031 11.6776 299.044 11.5649 299.053 11.4522L299.794 7.89022H298.871L299.014 7.14922L300.002 7.08422L300.47 5.34222H301.315L300.964 7.08422H302.563L302.407 7.89022H300.782L300.041 11.5042C300.015 11.6602 300.002 11.8162 300.002 11.9722C300.002 12.2322 300.062 12.4272 300.184 12.5572C300.305 12.6872 300.513 12.7522 300.808 12.7522C300.929 12.7522 301.046 12.7306 301.159 12.6872C301.271 12.6439 301.375 12.6006 301.471 12.5572L301.692 13.2722C301.553 13.3329 301.38 13.3936 301.172 13.4542C300.972 13.5236 300.747 13.5582 300.496 13.5582ZM307.677 13.5582C306.992 13.5582 306.446 13.3329 306.039 12.8822C305.632 12.4316 305.428 11.8119 305.428 11.0232C305.428 10.4252 305.523 9.87922 305.714 9.38522C305.905 8.88255 306.16 8.44922 306.481 8.08522C306.802 7.71255 307.166 7.42655 307.573 7.22722C307.98 7.02789 308.401 6.92822 308.834 6.92822C309.519 6.92822 310.065 7.15355 310.472 7.60422C310.888 8.05489 311.096 8.67455 311.096 9.46322C311.096 10.0612 311.001 10.6116 310.81 11.1142C310.619 11.6082 310.359 12.0416 310.03 12.4142C309.709 12.7782 309.345 13.0599 308.938 13.2592C308.531 13.4586 308.11 13.5582 307.677 13.5582ZM307.781 12.7262C308.171 12.7262 308.539 12.5832 308.886 12.2972C309.241 12.0112 309.527 11.6256 309.744 11.1402C309.969 10.6549 310.082 10.1176 310.082 9.52822C310.082 8.95622 309.965 8.51855 309.731 8.21522C309.497 7.90322 309.163 7.74722 308.73 7.74722C308.34 7.74722 307.967 7.89455 307.612 8.18922C307.265 8.47522 306.979 8.86089 306.754 9.34622C306.537 9.83155 306.429 10.3689 306.429 10.9582C306.429 11.5302 306.546 11.9679 306.78 12.2712C307.014 12.5746 307.348 12.7262 307.781 12.7262ZM312.17 13.4022L313.275 7.89022H312.456L312.599 7.14922L313.444 7.08422L313.652 6.03122C313.782 5.38989 314.016 4.89155 314.354 4.53622C314.692 4.17222 315.126 3.99022 315.654 3.99022C315.88 3.99022 316.083 4.02055 316.265 4.08122C316.447 4.13322 316.616 4.20689 316.772 4.30222L316.421 5.01722C316.335 4.95655 316.231 4.90455 316.109 4.86122C315.997 4.81789 315.867 4.79622 315.719 4.79622C315.433 4.79622 315.199 4.90455 315.017 5.12122C314.844 5.33789 314.723 5.63255 314.653 6.00522L314.432 7.08422H315.706L315.55 7.89022H314.263L313.158 13.4022H312.17ZM320.288 13.5582C319.733 13.5582 319.343 13.4239 319.118 13.1552C318.892 12.8779 318.78 12.5442 318.78 12.1542C318.78 12.0242 318.788 11.9029 318.806 11.7902C318.823 11.6776 318.836 11.5649 318.845 11.4522L319.586 7.89022H318.663L318.806 7.14922L319.794 7.08422L320.262 5.34222H321.107L320.756 7.08422H322.355L322.199 7.89022H320.574L319.833 11.5042C319.807 11.6602 319.794 11.8162 319.794 11.9722C319.794 12.2322 319.854 12.4272 319.976 12.5572C320.097 12.6872 320.305 12.7522 320.6 12.7522C320.721 12.7522 320.838 12.7306 320.951 12.6872C321.063 12.6439 321.167 12.6006 321.263 12.5572L321.484 13.2722C321.345 13.3329 321.172 13.3936 320.964 13.4542C320.764 13.5236 320.539 13.5582 320.288 13.5582ZM322.513 13.4022L324.359 4.14622H325.36L324.736 7.20122L324.528 7.99422H324.58C324.936 7.69089 325.291 7.43955 325.646 7.24022C326.002 7.03222 326.37 6.92822 326.751 6.92822C327.289 6.92822 327.67 7.07122 327.895 7.35722C328.129 7.63455 328.246 8.01589 328.246 8.50122C328.246 8.76989 328.212 9.06022 328.142 9.37222L327.336 13.4022H326.348L327.128 9.50222C327.163 9.32889 327.189 9.19022 327.206 9.08622C327.224 8.98222 327.232 8.87389 327.232 8.76122C327.232 8.11122 326.92 7.78622 326.296 7.78622C326.054 7.78622 325.776 7.87722 325.464 8.05922C325.152 8.24122 324.797 8.53155 324.398 8.93022L323.501 13.4022H322.513ZM331.879 13.5582C331.134 13.5582 330.531 13.3286 330.072 12.8692C329.621 12.4099 329.396 11.7599 329.396 10.9192C329.396 10.3212 329.491 9.77955 329.682 9.29422C329.881 8.80889 330.141 8.38855 330.462 8.03322C330.791 7.67789 331.155 7.40489 331.554 7.21422C331.953 7.02355 332.36 6.92822 332.776 6.92822C333.253 6.92822 333.63 7.02789 333.907 7.22722C334.193 7.42655 334.401 7.69955 334.531 8.04622C334.661 8.39289 334.726 8.78289 334.726 9.21622C334.726 9.45889 334.7 9.69289 334.648 9.91822C334.596 10.1349 334.548 10.3039 334.505 10.4252H330.397C330.319 10.9712 330.349 11.4176 330.488 11.7642C330.627 12.1109 330.839 12.3666 331.125 12.5312C331.42 12.6872 331.749 12.7652 332.113 12.7652C332.364 12.7652 332.611 12.7132 332.854 12.6092C333.105 12.4966 333.331 12.3666 333.53 12.2192L333.92 12.8822C333.669 13.0642 333.365 13.2246 333.01 13.3632C332.663 13.4932 332.286 13.5582 331.879 13.5582ZM330.501 9.74922H333.816C333.833 9.65389 333.846 9.55422 333.855 9.45022C333.872 9.34622 333.881 9.23789 333.881 9.12522C333.881 8.88255 333.842 8.65722 333.764 8.44922C333.686 8.23255 333.556 8.05922 333.374 7.92922C333.201 7.79055 332.962 7.72122 332.659 7.72122C332.2 7.72122 331.766 7.90755 331.359 8.28022C330.952 8.64422 330.666 9.13389 330.501 9.74922ZM341.494 13.5582C340.628 13.5582 339.96 13.3329 339.492 12.8822C339.033 12.4229 338.803 11.7512 338.803 10.8672C338.803 10.6852 338.816 10.4946 338.842 10.2952C338.868 10.0872 338.899 9.87489 338.933 9.65822L339.895 4.87422H340.909L339.934 9.74922C339.856 10.1392 339.817 10.4816 339.817 10.7762C339.817 11.3829 339.956 11.8552 340.233 12.1932C340.511 12.5226 340.948 12.6872 341.546 12.6872C342.032 12.6872 342.469 12.4879 342.859 12.0892C343.249 11.6906 343.535 11.0276 343.717 10.1002L344.77 4.87422H345.758L344.692 10.1392C344.45 11.3699 344.047 12.2496 343.483 12.7782C342.92 13.2982 342.257 13.5582 341.494 13.5582ZM346.57 13.5582C346.379 13.5582 346.228 13.4976 346.115 13.3762C346.011 13.2549 345.959 13.0989 345.959 12.9082C345.959 12.6829 346.041 12.4749 346.206 12.2842C346.379 12.0936 346.587 11.9982 346.83 11.9982C347.021 11.9982 347.168 12.0632 347.272 12.1932C347.376 12.3146 347.428 12.4706 347.428 12.6612C347.428 12.8779 347.346 13.0816 347.181 13.2722C347.025 13.4629 346.821 13.5582 346.57 13.5582ZM351.812 13.5582C351.231 13.5582 350.698 13.4326 350.213 13.1812C349.727 12.9299 349.311 12.5529 348.965 12.0502L349.706 11.4912C349.957 11.8639 350.265 12.1586 350.629 12.3752C351.001 12.5919 351.426 12.7002 351.903 12.7002C352.423 12.7002 352.856 12.5529 353.203 12.2582C353.558 11.9636 353.736 11.5736 353.736 11.0882C353.736 10.7762 353.636 10.5119 353.437 10.2952C353.246 10.0786 352.99 9.87489 352.67 9.68422L351.682 9.08622C351.318 8.86089 351.006 8.59222 350.746 8.28022C350.494 7.95955 350.369 7.56089 350.369 7.08422C350.369 6.65089 350.481 6.25655 350.707 5.90122C350.941 5.54589 351.257 5.25989 351.656 5.04322C352.054 4.82655 352.509 4.71822 353.021 4.71822C353.532 4.71822 353.996 4.83089 354.412 5.05622C354.828 5.28155 355.17 5.56755 355.439 5.91422L354.776 6.51222C354.559 6.25222 354.299 6.03555 353.996 5.86222C353.692 5.68022 353.341 5.58922 352.943 5.58922C352.622 5.58922 352.345 5.65855 352.111 5.79722C351.885 5.92722 351.708 6.09622 351.578 6.30422C351.456 6.51222 351.396 6.73322 351.396 6.96722C351.396 7.29655 351.5 7.56522 351.708 7.77322C351.924 7.97255 352.189 8.16755 352.501 8.35822L353.489 8.94322C353.896 9.18589 354.212 9.46322 354.438 9.77522C354.663 10.0786 354.776 10.4686 354.776 10.9452C354.776 11.4479 354.646 11.8986 354.386 12.2972C354.134 12.6872 353.788 12.9949 353.346 13.2202C352.904 13.4456 352.392 13.5582 351.812 13.5582ZM356.295 13.5582C356.104 13.5582 355.952 13.4976 355.84 13.3762C355.736 13.2549 355.684 13.0989 355.684 12.9082C355.684 12.6829 355.766 12.4749 355.931 12.2842C356.104 12.0936 356.312 11.9982 356.555 11.9982C356.745 11.9982 356.893 12.0632 356.997 12.1932C357.101 12.3146 357.153 12.4706 357.153 12.6612C357.153 12.8779 357.07 13.0816 356.906 13.2722C356.75 13.4629 356.546 13.5582 356.295 13.5582ZM365.036 13.5582C364.013 13.5582 363.229 13.2462 362.683 12.6222C362.145 11.9896 361.877 11.1532 361.877 10.1132C361.877 9.43722 361.981 8.77855 362.189 8.13722C362.397 7.49589 362.696 6.91955 363.086 6.40822C363.484 5.88822 363.961 5.47655 364.516 5.17322C365.079 4.86989 365.712 4.71822 366.414 4.71822C366.925 4.71822 367.354 4.83955 367.701 5.08222C368.056 5.31622 368.342 5.61522 368.559 5.97922L367.844 6.51222C367.679 6.23489 367.475 6.01389 367.233 5.84922C366.999 5.67589 366.708 5.58922 366.362 5.58922C365.824 5.58922 365.343 5.72355 364.919 5.99222C364.494 6.25222 364.13 6.59889 363.827 7.03222C363.532 7.46555 363.307 7.94222 363.151 8.46222C362.995 8.98222 362.917 9.50222 362.917 10.0222C362.917 10.5249 362.99 10.9799 363.138 11.3872C363.294 11.7946 363.536 12.1152 363.866 12.3492C364.195 12.5832 364.633 12.7002 365.179 12.7002C365.491 12.7002 365.768 12.6482 366.011 12.5442C366.262 12.4402 366.47 12.3189 366.635 12.1802L367.116 9.82722H365.348L365.517 8.99522H368.195L367.454 12.6872C367.142 12.9472 366.782 13.1596 366.375 13.3242C365.967 13.4802 365.521 13.5582 365.036 13.5582ZM371.534 13.5582C370.85 13.5582 370.304 13.3329 369.896 12.8822C369.489 12.4316 369.285 11.8119 369.285 11.0232C369.285 10.4252 369.381 9.87922 369.571 9.38522C369.762 8.88255 370.018 8.44922 370.338 8.08522C370.659 7.71255 371.023 7.42655 371.43 7.22722C371.838 7.02789 372.258 6.92822 372.691 6.92822C373.376 6.92822 373.922 7.15355 374.329 7.60422C374.745 8.05489 374.953 8.67455 374.953 9.46322C374.953 10.0612 374.858 10.6116 374.667 11.1142C374.477 11.6082 374.217 12.0416 373.887 12.4142C373.567 12.7782 373.203 13.0599 372.795 13.2592C372.388 13.4586 371.968 13.5582 371.534 13.5582ZM371.638 12.7262C372.028 12.7262 372.397 12.5832 372.743 12.2972C373.099 12.0112 373.385 11.6256 373.601 11.1402C373.827 10.6549 373.939 10.1176 373.939 9.52822C373.939 8.95622 373.822 8.51855 373.588 8.21522C373.354 7.90322 373.021 7.74722 372.587 7.74722C372.197 7.74722 371.825 7.89455 371.469 8.18922C371.123 8.47522 370.837 8.86089 370.611 9.34622C370.395 9.83155 370.286 10.3689 370.286 10.9582C370.286 11.5302 370.403 11.9679 370.637 12.2712C370.871 12.5746 371.205 12.7262 371.638 12.7262ZM377.019 13.4022L376.096 7.08422H377.084L377.552 10.7372C377.587 11.0406 377.617 11.3569 377.643 11.6862C377.669 12.0069 377.699 12.3189 377.734 12.6222H377.786C377.933 12.3102 378.085 11.9982 378.241 11.6862C378.397 11.3656 378.557 11.0492 378.722 10.7372L380.581 7.08422H381.582L378.215 13.4022H377.019ZM384.069 13.5582C383.324 13.5582 382.722 13.3286 382.262 12.8692C381.812 12.4099 381.586 11.7599 381.586 10.9192C381.586 10.3212 381.682 9.77955 381.872 9.29422C382.072 8.80889 382.332 8.38855 382.652 8.03322C382.982 7.67789 383.346 7.40489 383.744 7.21422C384.143 7.02355 384.55 6.92822 384.966 6.92822C385.443 6.92822 385.82 7.02789 386.097 7.22722C386.383 7.42655 386.591 7.69955 386.721 8.04622C386.851 8.39289 386.916 8.78289 386.916 9.21622C386.916 9.45889 386.89 9.69289 386.838 9.91822C386.786 10.1349 386.739 10.3039 386.695 10.4252H382.587C382.509 10.9712 382.54 11.4176 382.678 11.7642C382.817 12.1109 383.029 12.3666 383.315 12.5312C383.61 12.6872 383.939 12.7652 384.303 12.7652C384.555 12.7652 384.802 12.7132 385.044 12.6092C385.296 12.4966 385.521 12.3666 385.72 12.2192L386.11 12.8822C385.859 13.0642 385.556 13.2246 385.2 13.3632C384.854 13.4932 384.477 13.5582 384.069 13.5582ZM382.691 9.74922H386.006C386.024 9.65389 386.037 9.55422 386.045 9.45022C386.063 9.34622 386.071 9.23789 386.071 9.12522C386.071 8.88255 386.032 8.65722 385.954 8.44922C385.876 8.23255 385.746 8.05922 385.564 7.92922C385.391 7.79055 385.153 7.72122 384.849 7.72122C384.39 7.72122 383.957 7.90755 383.549 8.28022C383.142 8.64422 382.856 9.13389 382.691 9.74922ZM387.767 13.4022L389.028 7.08422H389.847L389.704 8.29322H389.756C390.008 7.91189 390.298 7.59122 390.627 7.33122C390.957 7.06255 391.316 6.92822 391.706 6.92822C391.923 6.92822 392.122 6.96722 392.304 7.04522L391.953 7.92922C391.815 7.85989 391.633 7.82522 391.407 7.82522C391.095 7.82522 390.775 7.96389 390.445 8.24122C390.116 8.50989 389.817 8.89989 389.548 9.41122L388.755 13.4022H387.767ZM392.211 13.4022L393.472 7.08422H394.291L394.2 8.03322H394.252C394.607 7.72122 394.962 7.46122 395.318 7.25322C395.673 7.03655 396.05 6.92822 396.449 6.92822C396.986 6.92822 397.367 7.07122 397.593 7.35722C397.827 7.63455 397.944 8.01589 397.944 8.50122C397.944 8.76989 397.909 9.06022 397.84 9.37222L397.034 13.4022H396.046L396.826 9.50222C396.86 9.32889 396.886 9.19022 396.904 9.08622C396.921 8.98222 396.93 8.87389 396.93 8.76122C396.93 8.11122 396.618 7.78622 395.994 7.78622C395.751 7.78622 395.474 7.87722 395.162 8.05922C394.85 8.24122 394.494 8.53155 394.096 8.93022L393.199 13.4022H392.211ZM399.041 13.4022L400.302 7.08422H401.121L401.03 8.03322H401.082C401.411 7.72122 401.753 7.46122 402.109 7.25322C402.473 7.03655 402.819 6.92822 403.149 6.92822C403.651 6.92822 404.007 7.04955 404.215 7.29222C404.431 7.52622 404.561 7.81655 404.605 8.16322C405.012 7.78189 405.406 7.48289 405.788 7.26622C406.169 7.04089 406.52 6.92822 406.841 6.92822C407.369 6.92822 407.751 7.07122 407.985 7.35722C408.219 7.63455 408.336 8.01589 408.336 8.50122C408.336 8.64855 408.327 8.78722 408.31 8.91722C408.292 9.04722 408.266 9.19889 408.232 9.37222L407.426 13.4022H406.425L407.218 9.50222C407.252 9.32889 407.278 9.19022 407.296 9.08622C407.313 8.98222 407.322 8.87389 407.322 8.76122C407.322 8.11122 407.014 7.78622 406.399 7.78622C406.217 7.78622 405.97 7.87722 405.658 8.05922C405.346 8.24122 404.999 8.53155 404.618 8.93022L403.721 13.4022H402.733L403.513 9.50222C403.547 9.32889 403.573 9.19022 403.591 9.08622C403.608 8.98222 403.617 8.87389 403.617 8.76122C403.617 8.11122 403.313 7.78622 402.707 7.78622C402.516 7.78622 402.265 7.87722 401.953 8.05922C401.641 8.24122 401.298 8.53155 400.926 8.93022L400.029 13.4022H399.041ZM411.986 13.5582C411.241 13.5582 410.639 13.3286 410.179 12.8692C409.729 12.4099 409.503 11.7599 409.503 10.9192C409.503 10.3212 409.599 9.77955 409.789 9.29422C409.989 8.80889 410.249 8.38855 410.569 8.03322C410.899 7.67789 411.263 7.40489 411.661 7.21422C412.06 7.02355 412.467 6.92822 412.883 6.92822C413.36 6.92822 413.737 7.02789 414.014 7.22722C414.3 7.42655 414.508 7.69955 414.638 8.04622C414.768 8.39289 414.833 8.78289 414.833 9.21622C414.833 9.45889 414.807 9.69289 414.755 9.91822C414.703 10.1349 414.656 10.3039 414.612 10.4252H410.504C410.426 10.9712 410.457 11.4176 410.595 11.7642C410.734 12.1109 410.946 12.3666 411.232 12.5312C411.527 12.6872 411.856 12.7652 412.22 12.7652C412.472 12.7652 412.719 12.7132 412.961 12.6092C413.213 12.4966 413.438 12.3666 413.637 12.2192L414.027 12.8822C413.776 13.0642 413.473 13.2246 413.117 13.3632C412.771 13.4932 412.394 13.5582 411.986 13.5582ZM410.608 9.74922H413.923C413.941 9.65389 413.954 9.55422 413.962 9.45022C413.98 9.34622 413.988 9.23789 413.988 9.12522C413.988 8.88255 413.949 8.65722 413.871 8.44922C413.793 8.23255 413.663 8.05922 413.481 7.92922C413.308 7.79055 413.07 7.72122 412.766 7.72122C412.307 7.72122 411.874 7.90755 411.466 8.28022C411.059 8.64422 410.773 9.13389 410.608 9.74922ZM415.684 13.4022L416.945 7.08422H417.764L417.673 8.03322H417.725C418.081 7.72122 418.436 7.46122 418.791 7.25322C419.147 7.03655 419.524 6.92822 419.922 6.92822C420.46 6.92822 420.841 7.07122 421.066 7.35722C421.3 7.63455 421.417 8.01589 421.417 8.50122C421.417 8.76989 421.383 9.06022 421.313 9.37222L420.507 13.4022H419.519L420.299 9.50222C420.334 9.32889 420.36 9.19022 420.377 9.08622C420.395 8.98222 420.403 8.87389 420.403 8.76122C420.403 8.11122 420.091 7.78622 419.467 7.78622C419.225 7.78622 418.947 7.87722 418.635 8.05922C418.323 8.24122 417.968 8.53155 417.569 8.93022L416.672 13.4022H415.684ZM424.516 13.5582C423.962 13.5582 423.572 13.4239 423.346 13.1552C423.121 12.8779 423.008 12.5442 423.008 12.1542C423.008 12.0242 423.017 11.9029 423.034 11.7902C423.052 11.6776 423.065 11.5649 423.073 11.4522L423.814 7.89022H422.891L423.034 7.14922L424.022 7.08422L424.49 5.34222H425.335L424.984 7.08422H426.583L426.427 7.89022H424.802L424.061 11.5042C424.035 11.6602 424.022 11.8162 424.022 11.9722C424.022 12.2322 424.083 12.4272 424.204 12.5572C424.326 12.6872 424.534 12.7522 424.828 12.7522C424.95 12.7522 425.067 12.7306 425.179 12.6872C425.292 12.6439 425.396 12.6006 425.491 12.5572L425.712 13.2722C425.574 13.3329 425.4 13.3936 425.192 13.4542C424.993 13.5236 424.768 13.5582 424.516 13.5582Z" fill="black"/>
<path d="M3.38 30.5222C2.83333 30.5222 2.34333 30.3889 1.91 30.1222C1.48333 29.8489 1.14333 29.4589 0.89 28.9522C0.643333 28.4456 0.52 27.8356 0.52 27.1222C0.52 26.4156 0.646667 25.8089 0.9 25.3022C1.15333 24.7956 1.5 24.4056 1.94 24.1322C2.38 23.8589 2.87667 23.7222 3.43 23.7222C3.83 23.7222 4.18333 23.8056 4.49 23.9722C4.79667 24.1322 5.04333 24.3189 5.23 24.5322L4.78 25.0722C4.60667 24.8856 4.41 24.7356 4.19 24.6222C3.97 24.5089 3.72 24.4522 3.44 24.4522C3.02667 24.4522 2.66333 24.5622 2.35 24.7822C2.04333 24.9956 1.80333 25.2989 1.63 25.6922C1.46333 26.0856 1.38 26.5556 1.38 27.1022C1.38 27.6489 1.46333 28.1256 1.63 28.5322C1.79667 28.9322 2.03 29.2422 2.33 29.4622C2.63667 29.6822 2.99667 29.7922 3.41 29.7922C3.72333 29.7922 4.00333 29.7256 4.25 29.5922C4.49667 29.4589 4.72333 29.2789 4.93 29.0522L5.39 29.5722C5.13 29.8722 4.83667 30.1056 4.51 30.2722C4.18333 30.4389 3.80667 30.5222 3.38 30.5222ZM6.53289 30.4022V25.5422H7.35289V30.4022H6.53289ZM6.95289 24.5422C6.79289 24.5422 6.65956 24.4956 6.55289 24.4022C6.45289 24.3022 6.40289 24.1689 6.40289 24.0022C6.40289 23.8422 6.45289 23.7122 6.55289 23.6122C6.65956 23.5122 6.79289 23.4622 6.95289 23.4622C7.11289 23.4622 7.24289 23.5122 7.34289 23.6122C7.44956 23.7122 7.50289 23.8422 7.50289 24.0022C7.50289 24.1689 7.44956 24.3022 7.34289 24.4022C7.24289 24.4956 7.11289 24.5422 6.95289 24.5422ZM10.5238 30.5222C10.0038 30.5222 9.64049 30.3722 9.43383 30.0722C9.23383 29.7722 9.13383 29.3822 9.13383 28.9022V26.2122H8.41383V25.5922L9.17383 25.5422L9.27383 24.1822H9.96383V25.5422H11.2738V26.2122H9.96383V28.9122C9.96383 29.2122 10.0172 29.4456 10.1238 29.6122C10.2372 29.7722 10.4338 29.8522 10.7138 29.8522C10.8005 29.8522 10.8938 29.8389 10.9938 29.8122C11.0938 29.7789 11.1838 29.7489 11.2638 29.7222L11.4238 30.3422C11.2905 30.3889 11.1438 30.4289 10.9838 30.4622C10.8305 30.5022 10.6772 30.5222 10.5238 30.5222ZM12.3727 30.4022V25.5422H13.1927V30.4022H12.3727ZM12.7927 24.5422C12.6327 24.5422 12.4994 24.4956 12.3927 24.4022C12.2927 24.3022 12.2427 24.1689 12.2427 24.0022C12.2427 23.8422 12.2927 23.7122 12.3927 23.6122C12.4994 23.5122 12.6327 23.4622 12.7927 23.4622C12.9527 23.4622 13.0827 23.5122 13.1827 23.6122C13.2894 23.7122 13.3427 23.8422 13.3427 24.0022C13.3427 24.1689 13.2894 24.3022 13.1827 24.4022C13.0827 24.4956 12.9527 24.5422 12.7927 24.5422ZM16.9837 30.5222C16.757 30.5222 16.5203 30.4689 16.2737 30.3622C16.0337 30.2489 15.807 30.0956 15.5937 29.9022H15.5637L15.4937 30.4022H14.8337V23.2822H15.6537V25.2222L15.6337 26.1022C15.8537 25.9089 16.0937 25.7489 16.3537 25.6222C16.6203 25.4889 16.887 25.4222 17.1537 25.4222C17.787 25.4222 18.267 25.6456 18.5937 26.0922C18.9203 26.5389 19.0837 27.1389 19.0837 27.8922C19.0837 28.4456 18.9837 28.9189 18.7837 29.3122C18.5903 29.7056 18.3337 30.0056 18.0137 30.2122C17.7003 30.4189 17.357 30.5222 16.9837 30.5222ZM16.8437 29.8322C17.2437 29.8322 17.5737 29.6622 17.8337 29.3222C18.1003 28.9756 18.2337 28.5022 18.2337 27.9022C18.2337 27.3689 18.1337 26.9389 17.9337 26.6122C17.7403 26.2789 17.4137 26.1122 16.9537 26.1122C16.747 26.1122 16.537 26.1689 16.3237 26.2822C16.1103 26.3956 15.887 26.5589 15.6537 26.7722V29.3222C15.867 29.5089 16.077 29.6422 16.2837 29.7222C16.497 29.7956 16.6837 29.8322 16.8437 29.8322ZM21.3443 30.5222C20.9376 30.5222 20.5976 30.4022 20.3243 30.1622C20.0576 29.9156 19.9243 29.5756 19.9243 29.1422C19.9243 28.6089 20.161 28.2022 20.6343 27.9222C21.1143 27.6356 21.871 27.4356 22.9043 27.3222C22.9043 27.1156 22.8743 26.9189 22.8143 26.7322C22.761 26.5456 22.661 26.3956 22.5143 26.2822C22.3743 26.1622 22.171 26.1022 21.9043 26.1022C21.6243 26.1022 21.361 26.1556 21.1143 26.2622C20.8676 26.3689 20.6476 26.4889 20.4543 26.6222L20.1343 26.0522C20.361 25.9056 20.6376 25.7656 20.9643 25.6322C21.2976 25.4922 21.6576 25.4222 22.0443 25.4222C22.6376 25.4222 23.0676 25.6056 23.3343 25.9722C23.601 26.3322 23.7343 26.8156 23.7343 27.4222V30.4022H23.0543L22.9843 29.8222H22.9543C22.7276 30.0089 22.4776 30.1722 22.2043 30.3122C21.9376 30.4522 21.651 30.5222 21.3443 30.5222ZM21.5843 29.8622C21.8176 29.8622 22.0376 29.8056 22.2443 29.6922C22.451 29.5789 22.671 29.4189 22.9043 29.2122V27.8622C22.0976 27.9622 21.531 28.1122 21.2043 28.3122C20.8843 28.5122 20.7243 28.7689 20.7243 29.0822C20.7243 29.3556 20.8076 29.5556 20.9743 29.6822C21.141 29.8022 21.3443 29.8622 21.5843 29.8622ZM25.2634 30.4022V25.5422H25.9434L26.0134 26.2422H26.0434C26.2767 26.0089 26.5234 25.8156 26.7834 25.6622C27.0434 25.5022 27.34 25.4222 27.6734 25.4222C28.1867 25.4222 28.56 25.5856 28.7934 25.9122C29.0334 26.2322 29.1534 26.7022 29.1534 27.3222V30.4022H28.3334V27.4322C28.3334 26.9789 28.26 26.6489 28.1134 26.4422C27.9667 26.2356 27.7334 26.1322 27.4134 26.1322C27.1667 26.1322 26.9434 26.1956 26.7434 26.3222C26.55 26.4489 26.33 26.6356 26.0834 26.8822V30.4022H25.2634ZM30.7321 30.4022V23.2822H31.5421V28.1022H31.5721L33.6421 25.5422H34.5521L32.9221 27.4922L34.7721 30.4022H33.8721L32.4521 28.0622L31.5421 29.1222V30.4022H30.7321ZM35.6602 32.1022L35.4602 31.6222C35.7469 31.4956 35.9702 31.3256 36.1302 31.1122C36.2902 30.9056 36.3669 30.6689 36.3602 30.4022C36.3469 30.4089 36.3302 30.4122 36.3102 30.4122C36.2902 30.4122 36.2736 30.4122 36.2602 30.4122C36.1002 30.4122 35.9602 30.3656 35.8402 30.2722C35.7269 30.1722 35.6702 30.0289 35.6702 29.8422C35.6702 29.6622 35.7302 29.5222 35.8502 29.4222C35.9702 29.3156 36.1136 29.2622 36.2802 29.2622C36.4936 29.2622 36.6602 29.3489 36.7802 29.5222C36.9069 29.6956 36.9702 29.9322 36.9702 30.2322C36.9702 30.6589 36.8536 31.0322 36.6202 31.3522C36.3869 31.6789 36.0669 31.9289 35.6602 32.1022ZM40.3824 30.4022V23.8422H41.2424L43.6124 27.9622L44.3224 29.3222H44.3624C44.3424 28.9889 44.3191 28.6456 44.2924 28.2922C44.2724 27.9322 44.2624 27.5789 44.2624 27.2322V23.8422H45.0524V30.4022H44.1924L41.8124 26.2722L41.1024 24.9222H41.0624C41.0891 25.2489 41.1124 25.5856 41.1324 25.9322C41.1591 26.2789 41.1724 26.6256 41.1724 26.9722V30.4022H40.3824ZM47.207 30.5222C47.0404 30.5222 46.897 30.4656 46.777 30.3522C46.6637 30.2322 46.607 30.0822 46.607 29.9022C46.607 29.7089 46.6637 29.5556 46.777 29.4422C46.897 29.3222 47.0404 29.2622 47.207 29.2622C47.367 29.2622 47.5037 29.3222 47.617 29.4422C47.737 29.5556 47.797 29.7089 47.797 29.9022C47.797 30.0822 47.737 30.2322 47.617 30.3522C47.5037 30.4656 47.367 30.5222 47.207 30.5222ZM50.4773 26.7322L50.1673 27.7322H52.1373L51.8273 26.7322C51.7073 26.3656 51.5939 26.0022 51.4873 25.6422C51.3806 25.2756 51.2739 24.9022 51.1673 24.5222H51.1273C51.0273 24.9022 50.9239 25.2756 50.8173 25.6422C50.7106 26.0022 50.5973 26.3656 50.4773 26.7322ZM48.4773 30.4022L50.6973 23.8422H51.6373L53.8573 30.4022H52.9673L52.3473 28.4022H49.9573L49.3273 30.4022H48.4773ZM55.1367 30.5222C54.9701 30.5222 54.8267 30.4656 54.7067 30.3522C54.5934 30.2322 54.5367 30.0822 54.5367 29.9022C54.5367 29.7089 54.5934 29.5556 54.7067 29.4422C54.8267 29.3222 54.9701 29.2622 55.1367 29.2622C55.2967 29.2622 55.4334 29.3222 55.5467 29.4422C55.6667 29.5556 55.7267 29.7089 55.7267 29.9022C55.7267 30.0822 55.6667 30.2322 55.5467 30.3522C55.4334 30.4656 55.2967 30.5222 55.1367 30.5222Z" fill="black"/>
</svg>
